v -20.0 0.0 20.0
v -20.0 0.0 -20.0
v 20.0 0.0 -20.0
v 20.0 0.0 20.0
v 2.0 0.0 20.0
v 2.0 4.0 20.0
v 2.0 8.0 20.0
v 6.0 0.0 20.0
v 6.0 4.0 20.0
v 6.0 8.0 20.0
v -20.0 8.0 20.0
v -20.0 8.0 -20.0
v 20.0 8.0 -20.0
v 20.0 8.0 20.0
v 2.0 0.0 30.0
v 6.0 0.0 30.0
v 2.0 4.0 30.0
v 6.0 4.0 30.0
v 0.0 0.0 30.0
v 0.0 0.0 100.0
v 50.0 0.0 100.0
v 50.0 0.0 30.0
v 0.0 10.0 30.0
v 0.0 10.0 100.0
v 50.0 10.0 100.0
v 50.0 10.0 30.0
v 2.0 10.0 30.0
v 6.0 10.0 30.0
vt 0.0 0.0
vt 1.0 0.0
vt 1.0 1.0
vt 0.0 1.0
vn 1.0 0.0 0.0
vn -1.0 0.0 0.0
vn 0.0 1.0 0.0
vn 0.0 -1.0 0.0
vn 0.0 0.0 1.0
vn 0.0 0.0 -1.0
f 4/4/3 3/3/3 2/2/3 1/1/3
f 11/4/6 7/3/6 5/2/6 1/1/6
f 6/1/6 7/2/6 10/3/6 9/4/6
f 8/1/6 10/2/6 14/3/6 4/4/6
f 14/4/2 13/3/2 3/2/2 4/1/2
f 13/4/5 12/3/5 2/2/5 3/1/5
f 2/1/1 12/2/1 11/3/1 1/4/1
f 5/4/1 6/3/1 17/2/1 15/1/1
f 16/1/2 18/2/2 9/3/2 8/4/2
f 15/1/3 16/2/3 8/3/3 5/4/3
f 6/4/4 9/3/4 18/2/4 17/1/4
f 11/1/4 12/2/4 13/3/4 14/4/4
f 27/4/5 23/3/5 19/2/5 15/1/5
f 17/1/5 18/2/5 28/3/5 27/4/5
f 22/4/5 26/3/5 28/2/5 16/1/5
f 19/1/3 20/2/3 21/3/3 22/4/3
f 23/4/1 24/3/1 20/2/1 19/1/1
f 24/4/6 25/3/6 21/2/6 20/1/6
f 25/4/2 26/3/2 22/2/2 21/1/2
f 26/1/4 25/2/4 24/3/4 23/4/4